<svg width="53" height="28" viewBox="0 0 53 28" fill="none" xmlns="http://www.w3.org/2000/svg">
<rect width="52.5" height="28" rx="14" fill="#8B8B8B"/>
<circle cx="14" cy="14" r="12.25" fill="white"/>
<path d="M46.1643 15.3577C45.9879 15.2193 45.745 15.2018 45.5505 15.3137C44.6283 15.8437 43.6535 16.1126 42.6533 16.1126C39.4396 16.1126 36.825 13.4979 36.825 10.2841C36.825 9.27945 37.0942 8.30601 37.6252 7.39091C37.738 7.19663 37.7212 6.95327 37.5829 6.77616C37.4447 6.59906 37.2126 6.52371 36.9968 6.58607C35.4443 7.03361 34.0469 7.98312 33.0622 9.25964C32.0402 10.5846 31.5 12.1714 31.5 13.8485C31.5 18.033 34.9042 21.4375 39.0886 21.4375C40.7658 21.4375 42.353 20.8975 43.6786 19.8758C44.9559 18.8913 45.9059 17.4947 46.3534 15.9433C46.4157 15.7277 46.3408 15.4961 46.1643 15.3577ZM39.0886 20.3369C35.511 20.3369 32.6005 17.4262 32.6005 13.8485C32.6005 11.4349 33.9816 9.23843 36.0807 8.13455C35.8439 8.83044 35.7245 9.54936 35.7245 10.2841C35.7245 14.1047 38.8328 17.2131 42.6533 17.2131C43.387 17.2131 44.1072 17.0932 44.8064 16.8555C43.7027 18.9551 41.5043 20.3369 39.0886 20.3369Z" fill="white"/>
</svg>
