<svg width="53" height="28" viewBox="0 0 53 28" fill="none" xmlns="http://www.w3.org/2000/svg">
<rect width="52.5" height="28" rx="14" fill="white"/>
<circle cx="38.5" cy="14" r="12.25" fill="#8B8B8B"/>
<g clip-path="url(#clip0_5447_27264)">
<path d="M13.9991 19.918C13.6872 19.918 13.4344 20.1707 13.4344 20.4826V22.1873C13.4344 22.4992 13.6872 22.752 13.9991 22.752C14.311 22.752 14.5637 22.4992 14.5637 22.1873V20.4826C14.5637 20.1707 14.311 19.918 13.9991 19.918Z" fill="#8B8B8B"/>
<path d="M13.9991 8.08572C14.311 8.08572 14.5637 7.83298 14.5637 7.52107V5.8166C14.5637 5.50469 14.311 5.25195 13.9991 5.25195C13.6872 5.25195 13.4344 5.50469 13.4344 5.8166V7.52115C13.4344 7.83298 13.6872 8.08572 13.9991 8.08572Z" fill="#8B8B8B"/>
<path d="M9.01837 18.1849L7.81259 19.39C7.592 19.6105 7.59193 19.968 7.81237 20.1885C7.92266 20.2989 8.06721 20.354 8.21176 20.354C8.35623 20.354 8.50071 20.299 8.61092 20.1887L9.81671 18.9836C10.0373 18.7631 10.0374 18.4056 9.81693 18.1851C9.59634 17.9644 9.23881 17.9643 9.01837 18.1849Z" fill="#8B8B8B"/>
<path d="M18.5818 9.98486C18.7263 9.98486 18.8708 9.92982 18.981 9.81961L20.1867 8.61443C20.4073 8.39391 20.4074 8.03646 20.1869 7.81594C19.9663 7.59521 19.6088 7.59528 19.3884 7.81572L18.1826 9.0209C17.962 9.24141 17.9619 9.59887 18.1824 9.81945C18.2927 9.92975 18.4373 9.98486 18.5818 9.98486Z" fill="#8B8B8B"/>
<path d="M8.08414 14.0002C8.08414 13.6883 7.83141 13.4355 7.5195 13.4355H5.81464C5.50274 13.4355 5.25 13.6883 5.25 14.0002C5.25 14.3121 5.50274 14.5648 5.81464 14.5648H7.5195C7.83133 14.5648 8.08414 14.312 8.08414 14.0002Z" fill="#8B8B8B"/>
<path d="M22.1853 13.4355H20.4799C20.168 13.4355 19.9153 13.6883 19.9153 14.0002C19.9153 14.3121 20.168 14.5648 20.4799 14.5648H22.1853C22.4972 14.5648 22.75 14.3121 22.75 14.0002C22.75 13.6883 22.4972 13.4355 22.1853 13.4355Z" fill="#8B8B8B"/>
<path d="M9.01818 9.8194C9.12848 9.92969 9.27295 9.9848 9.4175 9.9848C9.56197 9.9848 9.70652 9.92969 9.81674 9.81947C10.0373 9.59896 10.0373 9.24143 9.81682 9.02099L8.61164 7.81581C8.39105 7.59522 8.03352 7.5953 7.81316 7.81574C7.59257 8.03625 7.59257 8.39378 7.81308 8.61422L9.01818 9.8194Z" fill="#8B8B8B"/>
<path d="M18.9819 18.185C18.7613 17.9644 18.4038 17.9644 18.1834 18.1849C17.9628 18.4054 17.9628 18.7629 18.1833 18.9834L19.3884 20.1886C19.4987 20.2989 19.6432 20.354 19.7877 20.354C19.9322 20.354 20.0768 20.2989 20.187 20.1887C20.4076 19.9682 20.4076 19.6106 20.1871 19.3901L18.9819 18.185Z" fill="#8B8B8B"/>
<path d="M13.9998 8.91797C11.1967 8.91797 8.91626 11.1985 8.91626 14.0015C8.91626 16.8046 11.1967 19.085 13.9998 19.085C16.8028 19.085 19.0833 16.8046 19.0833 14.0015C19.0833 11.1985 16.8028 8.91797 13.9998 8.91797ZM13.9998 17.9558C11.8194 17.9558 10.0455 16.182 10.0455 14.0016C10.0455 11.8211 11.8194 10.0473 13.9998 10.0473C16.1802 10.0473 17.954 11.8211 17.954 14.0015C17.954 16.1819 16.1802 17.9558 13.9998 17.9558Z" fill="#8B8B8B"/>
</g>
<defs>
<clipPath id="clip0_5447_27264">
<rect width="17.5" height="17.5" fill="white" transform="translate(5.25 5.25)"/>
</clipPath>
</defs>
</svg>
